<?xml version="1.0" encoding="utf-8"?>
<!-- Generator: Adobe Illustrator 20.1.0, SVG Export Plug-In . SVG Version: 6.00 Build 0)  -->
<svg version="1.1" id="Слой_1" xmlns="http://www.w3.org/2000/svg" xmlns:xlink="http://www.w3.org/1999/xlink" x="0px" y="0px"
	 viewBox="0 0 24 24" style="enable-background:new 0 0 24 24;" xml:space="preserve">
<path d="M11.2,18.2l-3.2,3c-0.5,0.6-1.1,1-1.9,1.1c-1.2,0.3-2.5-0.1-3.4-1c-0.7-0.7-1.1-1.7-1.1-2.8c0-1,0.4-2,1.1-2.8
	l5.1-5.2c0.9-1,2.4-1.4,3.7-1c0.4,0.1,0.8,0.3,1.1,0.5c0.5,0.2,0.9,0.6,1.1,1.1c0.2,0.3,0.5,0.4,0.8,0.2c0.1,0,0.1-0.1,0.2-0.1l0,0
	c0.3-0.2,0.4-0.5,0.2-0.8c0-0.1-0.1-0.1-0.1-0.1c-0.4-0.6-1-1.2-1.6-1.6c-0.4-0.3-0.9-0.5-1.4-0.6c-1.8-0.5-3.7,0.1-5,1.4L1.5,15
	c-2,2.1-2,5.3,0,7.4c1,1,2.3,1.6,3.7,1.6c1.4,0,2.7-0.6,3.7-1.6l3.1-3.2C12.9,18.4,11.7,17.5,11.2,18.2z M22.5,1.6
	c-1-1-2.3-1.6-3.7-1.6c-1.4,0-2.7,0.6-3.7,1.6L12,4.8c-0.8,0.8,0.4,1.7,0.9,1l3.2-3c0.5-0.6,1.1-1,1.9-1.1c1.2-0.3,2.5,0.1,3.4,1
	c0.7,0.7,1.1,1.7,1.1,2.8c0,1-0.4,2-1.1,2.8l-5.1,5.2c-0.9,1-2.4,1.4-3.7,1c-0.4-0.1-0.8-0.3-1.1-0.5c-0.5-0.3-0.8-0.6-1.1-1.1
	c-0.2-0.3-0.5-0.4-0.8-0.2c-0.1,0-0.1,0.1-0.2,0.1l0,0c-0.3,0.2-0.4,0.5-0.2,0.8c0,0.1,0.1,0.1,0.1,0.1c0.4,0.6,1,1.2,1.6,1.6
	c0.4,0.3,0.9,0.5,1.4,0.6c1.8,0.5,3.7-0.1,5-1.4L22.7,9C24.5,6.8,24.4,3.6,22.5,1.6z"/>
</svg>
