<?xml version="1.0" encoding="utf-8"?>
<!-- Generator: Adobe Illustrator 20.1.0, SVG Export Plug-In . SVG Version: 6.00 Build 0)  -->
<svg version="1.1" id="Слой_1" xmlns="http://www.w3.org/2000/svg" xmlns:xlink="http://www.w3.org/1999/xlink" x="0px" y="0px"
	 viewBox="0 0 18 20" style="enable-background:new 0 0 18 20;" xml:space="preserve">
<style type="text/css">
	.st0{fill:#FAFAFA;}
</style>
<title>Group 7</title>
<desc>Created with Sketch.</desc>
<path class="st0" d="M12.1,10.8c1.6-1,2.6-2.8,2.6-4.8c0-3.2-2.6-5.8-5.8-5.8C5.8,0.3,3.3,2.8,3.3,6c0,2,1.1,3.8,2.6,4.8
	c-3.3,1.3-5.6,4.4-5.6,8.2c0,0.4,0.3,0.8,0.8,0.8s0.8-0.3,0.8-0.8c0-4,3.3-7.3,7.3-7.3c4,0,7.3,3.3,7.3,7.3c0,0.4,0.3,0.8,0.8,0.8
	s0.8-0.3,0.8-0.8C17.8,15.3,15.4,12.1,12.1,10.8z M4.8,6c0-2.3,1.9-4.3,4.3-4.3c2.3,0,4.3,1.9,4.3,4.3s-1.9,4.3-4.3,4.3
	C6.7,10.3,4.8,8.3,4.8,6z"/>
</svg>
